<mxfile host="app.diagrams.net" modified="2023-05-23T13:00:55.676Z" agent="Mozilla/5.0 (Macintosh; Intel Mac OS X 10_15_7) AppleWebKit/605.1.15 (KHTML, like Gecko) Version/16.4 Safari/605.1.15" etag="VyExu1qkan6gnpeh7w5F" version="21.3.2" type="google">
  <diagram name="Сторінка-1" id="L3hvuV_j_w6WOY5KmdmO">
    <mxGraphModel grid="1" page="1" gridSize="10" guides="1" tooltips="1" connect="1" arrows="1" fold="1" pageScale="1" pageWidth="827" pageHeight="1169" math="0" shadow="0">
      <root>
        <mxCell id="0" />
        <mxCell id="1" parent="0" />
        <mxCell id="XEKBR_4rA_A51tV6gFA4-3" value="" style="rounded=0;whiteSpace=wrap;html=1;" vertex="1" parent="1">
          <mxGeometry x="260" y="400" width="210" height="130" as="geometry" />
        </mxCell>
        <mxCell id="XEKBR_4rA_A51tV6gFA4-4" value="&lt;font style=&quot;font-size: 8px;&quot;&gt;A0&lt;/font&gt;" style="text;html=1;strokeColor=none;fillColor=none;align=center;verticalAlign=middle;whiteSpace=wrap;rounded=0;" vertex="1" parent="1">
          <mxGeometry x="430" y="500" width="60" height="30" as="geometry" />
        </mxCell>
        <mxCell id="XEKBR_4rA_A51tV6gFA4-5" value="" style="endArrow=classic;html=1;rounded=0;entryX=0;entryY=1;entryDx=0;entryDy=0;" edge="1" parent="1" target="XEKBR_4rA_A51tV6gFA4-4">
          <mxGeometry width="50" height="50" relative="1" as="geometry">
            <mxPoint x="430" y="570" as="sourcePoint" />
            <mxPoint x="560" y="470" as="targetPoint" />
          </mxGeometry>
        </mxCell>
        <mxCell id="XEKBR_4rA_A51tV6gFA4-6" value="" style="endArrow=classic;html=1;rounded=0;entryX=0;entryY=1;entryDx=0;entryDy=0;" edge="1" parent="1">
          <mxGeometry width="50" height="50" relative="1" as="geometry">
            <mxPoint x="284.62" y="570" as="sourcePoint" />
            <mxPoint x="284.62" y="530" as="targetPoint" />
          </mxGeometry>
        </mxCell>
        <mxCell id="XEKBR_4rA_A51tV6gFA4-7" value="Викладач з обліку навчального процесу" style="text;strokeColor=none;fillColor=none;align=left;verticalAlign=middle;whiteSpace=wrap;rounded=0;shadow=0;fontStyle=0;html=1;fontSize=9;spacingTop=0;" vertex="1" parent="1">
          <mxGeometry x="240" y="570" width="110" height="30" as="geometry" />
        </mxCell>
        <mxCell id="XEKBR_4rA_A51tV6gFA4-9" value="Середа розробки" style="text;strokeColor=none;fillColor=none;align=left;verticalAlign=middle;whiteSpace=wrap;rounded=0;shadow=0;fontStyle=0;html=1;fontSize=9;spacingTop=0;" vertex="1" parent="1">
          <mxGeometry x="400" y="562" width="80" height="30" as="geometry" />
        </mxCell>
        <mxCell id="XEKBR_4rA_A51tV6gFA4-10" value="" style="endArrow=classic;html=1;rounded=0;entryX=0;entryY=1;entryDx=0;entryDy=0;" edge="1" parent="1">
          <mxGeometry width="50" height="50" relative="1" as="geometry">
            <mxPoint x="220" y="420" as="sourcePoint" />
            <mxPoint x="260" y="420" as="targetPoint" />
          </mxGeometry>
        </mxCell>
        <mxCell id="XEKBR_4rA_A51tV6gFA4-11" value="&lt;div style=&quot;&quot;&gt;Інформація студентів, групи, викладачів, оцінки та навчальні предмети&lt;/div&gt;" style="text;strokeColor=none;fillColor=none;align=left;verticalAlign=middle;whiteSpace=wrap;rounded=0;shadow=0;fontStyle=0;html=1;fontSize=9;spacingTop=0;" vertex="1" parent="1">
          <mxGeometry x="124" y="400" width="110" height="30" as="geometry" />
        </mxCell>
        <mxCell id="XEKBR_4rA_A51tV6gFA4-13" value="" style="endArrow=classic;html=1;rounded=0;entryX=0;entryY=1;entryDx=0;entryDy=0;" edge="1" parent="1">
          <mxGeometry width="50" height="50" relative="1" as="geometry">
            <mxPoint x="220" y="494.69" as="sourcePoint" />
            <mxPoint x="260" y="494.69" as="targetPoint" />
          </mxGeometry>
        </mxCell>
        <mxCell id="XEKBR_4rA_A51tV6gFA4-14" value="&lt;div style=&quot;&quot;&gt;Виставлення оцінок студентам&lt;/div&gt;" style="text;strokeColor=none;fillColor=none;align=left;verticalAlign=middle;whiteSpace=wrap;rounded=0;shadow=0;fontStyle=0;html=1;fontSize=9;spacingTop=0;" vertex="1" parent="1">
          <mxGeometry x="124" y="480" width="110" height="30" as="geometry" />
        </mxCell>
        <mxCell id="XEKBR_4rA_A51tV6gFA4-15" value="" style="endArrow=classic;html=1;rounded=0;entryX=0;entryY=1;entryDx=0;entryDy=0;" edge="1" parent="1">
          <mxGeometry width="50" height="50" relative="1" as="geometry">
            <mxPoint x="470" y="494.69" as="sourcePoint" />
            <mxPoint x="510" y="494.69" as="targetPoint" />
          </mxGeometry>
        </mxCell>
        <mxCell id="XEKBR_4rA_A51tV6gFA4-16" value="&lt;div style=&quot;&quot;&gt;Статистичні дані&lt;/div&gt;" style="text;strokeColor=none;fillColor=none;align=left;verticalAlign=middle;whiteSpace=wrap;rounded=0;shadow=0;fontStyle=0;html=1;fontSize=9;spacingTop=0;" vertex="1" parent="1">
          <mxGeometry x="512" y="480" width="110" height="30" as="geometry" />
        </mxCell>
        <mxCell id="XEKBR_4rA_A51tV6gFA4-17" value="" style="endArrow=classic;html=1;rounded=0;entryX=0;entryY=1;entryDx=0;entryDy=0;" edge="1" parent="1">
          <mxGeometry width="50" height="50" relative="1" as="geometry">
            <mxPoint x="470" y="424.69" as="sourcePoint" />
            <mxPoint x="510" y="424.69" as="targetPoint" />
          </mxGeometry>
        </mxCell>
        <mxCell id="XEKBR_4rA_A51tV6gFA4-18" value="&lt;div style=&quot;&quot;&gt;Звіти для викладача&lt;/div&gt;" style="text;strokeColor=none;fillColor=none;align=left;verticalAlign=middle;whiteSpace=wrap;rounded=0;shadow=0;fontStyle=0;html=1;fontSize=9;spacingTop=0;" vertex="1" parent="1">
          <mxGeometry x="512" y="410" width="110" height="30" as="geometry" />
        </mxCell>
        <mxCell id="XEKBR_4rA_A51tV6gFA4-20" value="" style="endArrow=classic;html=1;rounded=0;" edge="1" parent="1">
          <mxGeometry width="50" height="50" relative="1" as="geometry">
            <mxPoint x="373" y="361" as="sourcePoint" />
            <mxPoint x="373" y="400" as="targetPoint" />
          </mxGeometry>
        </mxCell>
        <mxCell id="XEKBR_4rA_A51tV6gFA4-21" value="&lt;div style=&quot;&quot;&gt;Інструкція&lt;/div&gt;&lt;div style=&quot;&quot;&gt;викладача&lt;/div&gt;" style="text;strokeColor=none;fillColor=none;align=left;verticalAlign=middle;whiteSpace=wrap;rounded=0;shadow=0;fontStyle=0;html=1;fontSize=9;spacingTop=0;" vertex="1" parent="1">
          <mxGeometry x="350" y="332" width="56" height="30" as="geometry" />
        </mxCell>
        <mxCell id="XEKBR_4rA_A51tV6gFA4-25" value="АІС для обліку роботи&lt;br&gt;навчального закладу&lt;br style=&quot;font-size: 9px;&quot;&gt;&amp;nbsp;" style="text;html=1;strokeColor=none;fillColor=none;align=center;verticalAlign=middle;whiteSpace=wrap;rounded=0;fontSize=9;" vertex="1" parent="1">
          <mxGeometry x="255" y="420" width="220" height="100" as="geometry" />
        </mxCell>
      </root>
    </mxGraphModel>
  </diagram>
</mxfile>
